<svg width="25" height="26" viewBox="0 0 25 26" fill="none" xmlns="http://www.w3.org/2000/svg">
<g clip-path="url(#clip0)">
<path d="M12.5 25.9554C19.4036 25.9554 25 20.3589 25 13.4554C25 6.55179 19.4036 0.955353 12.5 0.955353C5.59644 0.955353 0 6.55179 0 13.4554C0 20.3589 5.59644 25.9554 12.5 25.9554Z" fill="#4D76A1"/>
<path fill-rule="evenodd" clip-rule="evenodd" d="M12.0278 18.9377H13.0089C13.0089 18.9377 13.3053 18.9052 13.4566 18.7421C13.5959 18.5923 13.5914 18.3111 13.5914 18.3111C13.5914 18.3111 13.5722 16.9947 14.1832 16.8008C14.7855 16.6099 15.5589 18.0732 16.3787 18.6358C16.9986 19.0616 17.4697 18.9682 17.4697 18.9682L19.6616 18.9377C19.6616 18.9377 20.8082 18.8671 20.2645 17.9655C20.22 17.8918 19.9479 17.2986 18.6348 16.0798C17.2604 14.8041 17.4445 15.0104 19.1001 12.8038C20.1083 11.46 20.5114 10.6395 20.3855 10.2881C20.2654 9.95344 19.5239 10.0419 19.5239 10.0419L17.0559 10.0573C17.0559 10.0573 16.8729 10.0323 16.7372 10.1134C16.6047 10.193 16.5193 10.3784 16.5193 10.3784C16.5193 10.3784 16.1287 11.4183 15.6077 12.3027C14.5088 14.1688 14.0694 14.2673 13.8898 14.1515C13.472 13.8814 13.5763 13.0665 13.5763 12.4876C13.5763 10.6792 13.8505 9.92514 13.0421 9.72995C12.7739 9.66511 12.5764 9.62232 11.8904 9.61542C11.0098 9.60628 10.2644 9.61809 9.84239 9.82487C9.56163 9.96235 9.34504 10.2687 9.47695 10.2863C9.64006 10.3082 10.0095 10.3859 10.2054 10.6527C10.4583 10.9967 10.4494 11.7695 10.4494 11.7695C10.4494 11.7695 10.5946 13.8983 10.11 14.1628C9.77732 14.3442 9.32098 13.9739 8.34122 12.2808C7.83919 11.4136 7.46017 10.455 7.46017 10.455C7.46017 10.455 7.38708 10.2759 7.25673 10.1801C7.09853 10.064 6.87748 10.027 6.87748 10.027L4.53226 10.0423C4.53226 10.0423 4.1802 10.0522 4.05096 10.2052C3.93598 10.3414 4.04182 10.623 4.04182 10.623C4.04182 10.623 5.87789 14.9186 7.95685 17.0834C9.86311 19.0681 12.0278 18.9377 12.0278 18.9377Z" fill="white"/>
</g>
<defs>
<clipPath id="clip0">
<rect width="25" height="25" fill="white" transform="translate(0 0.955353)"/>
</clipPath>
</defs>
</svg>
